<svg width="72" height="52" viewBox="0 0 72 52" fill="none" xmlns="http://www.w3.org/2000/svg">
<path fill-rule="evenodd" clip-rule="evenodd" d="M27 18.5C27 15.8748 27.0281 15 30.5 15C33.9719 15 34 15.8748 34 18.5C34 21.1252 34.0111 22 30.5 22C26.9889 22 27 21.1252 27 18.5Z" stroke="#FF7300" stroke-width="1.5" stroke-linecap="round" stroke-linejoin="round"/>
<path fill-rule="evenodd" clip-rule="evenodd" d="M38 18.5C38 15.8748 38.0281 15 41.5 15C44.9719 15 45 15.8748 45 18.5C45 21.1252 45.0111 22 41.5 22C37.9889 22 38 21.1252 38 18.5Z" stroke="#FF7300" stroke-width="1.5" stroke-linecap="round" stroke-linejoin="round"/>
<path fill-rule="evenodd" clip-rule="evenodd" d="M27 29.5C27 26.8748 27.0281 26 30.5 26C33.9719 26 34 26.8748 34 29.5C34 32.1252 34.0111 33 30.5 33C26.9889 33 27 32.1252 27 29.5Z" stroke="#FF7300" stroke-width="1.5" stroke-linecap="round" stroke-linejoin="round"/>
<path fill-rule="evenodd" clip-rule="evenodd" d="M38 29.5C38 26.8748 38.0281 26 41.5 26C44.9719 26 45 26.8748 45 29.5C45 32.1252 45.0111 33 41.5 33C37.9889 33 38 32.1252 38 29.5Z" stroke="#FF7300" stroke-width="1.5" stroke-linecap="round" stroke-linejoin="round"/>
</svg>
