<svg width="72" height="52" viewBox="0 0 72 52" fill="none" xmlns="http://www.w3.org/2000/svg">
    <path
        d="M29.3999 31.2C29.8611 30.6835 32.0209 28.3067 32.6539 28.3067H39.3463C40.2635 28.3067 42.1359 30.2769 42.5999 30.9714M45.5999 24C45.5999 29.302 41.3018 33.6 35.9999 33.6C30.698 33.6 26.3999 29.302 26.3999 24C26.3999 18.6981 30.698 14.4 35.9999 14.4C41.3018 14.4 45.5999 18.6981 45.5999 24ZM39.4387 20.728C39.4387 18.8965 37.8926 17.4 36.0002 17.4C34.1078 17.4 32.5616 18.8965 32.5616 20.728C32.5616 22.5595 34.1078 24.0559 36.0002 24.0559C37.8926 24.0559 39.4387 22.5595 39.4387 20.728Z"
        stroke="#BABBBB" stroke-width="1.5" />
</svg>
