<svg width="24" height="24" viewBox="0 0 24 24" fill="none" xmlns="http://www.w3.org/2000/svg">
<path fill-rule="evenodd" clip-rule="evenodd" d="M12.1208 15C11.7066 15 11.3708 14.6642 11.3708 14.25V2.20898C11.3708 1.79477 11.7066 1.45898 12.1208 1.45898C12.5351 1.45898 12.8708 1.79477 12.8708 2.20898V14.25C12.8708 14.6642 12.5351 15 12.1208 15Z" fill="white"/>
<path fill-rule="evenodd" clip-rule="evenodd" d="M8.67559 5.66718C8.3821 5.37489 8.38112 4.90002 8.67342 4.60652L11.5894 1.67852C11.7302 1.5372 11.9214 1.45776 12.1208 1.45776C12.3203 1.45776 12.5115 1.5372 12.6523 1.67852L15.5683 4.60652C15.8605 4.90002 15.8596 5.37489 15.5661 5.66718C15.2726 5.95947 14.7977 5.9585 14.5054 5.665L12.1208 3.27061L9.73625 5.665C9.44396 5.9585 8.96909 5.95947 8.67559 5.66718Z" fill="white"/>
<path fill-rule="evenodd" clip-rule="evenodd" d="M4.45009 9.71171C5.02564 8.935 5.96655 8.5467 7.69884 8.38702C8.11131 8.349 8.41485 7.98381 8.37683 7.57134C8.33881 7.15888 7.97362 6.85533 7.56116 6.89335C5.71345 7.06367 4.21436 7.51038 3.24491 8.81866C2.31546 10.073 2 11.9628 2 14.6402C2 18.19 2.55654 20.3726 4.37994 21.4927C5.249 22.0265 6.3253 22.2624 7.55739 22.377C8.78465 22.4912 10.259 22.4912 11.9684 22.4912H12.0316C13.741 22.4912 15.2154 22.4912 16.4426 22.377C17.6747 22.2624 18.751 22.0265 19.6201 21.4927C21.4435 20.3726 22 18.19 22 14.6402C22 11.9628 21.6845 10.073 20.7551 8.81866C19.7856 7.51038 18.2866 7.06367 16.4388 6.89335C16.0264 6.85533 15.6612 7.15888 15.6232 7.57134C15.5851 7.98381 15.8887 8.349 16.3012 8.38702C18.0334 8.5467 18.9744 8.935 19.5499 9.71171C20.1655 10.5424 20.5 11.9876 20.5 14.6402C20.5 18.1914 19.9015 19.5593 18.8349 20.2145C18.259 20.5683 17.4565 20.7762 16.3036 20.8835C15.1535 20.9905 13.7472 20.9912 12 20.9912C10.2528 20.9912 8.84654 20.9905 7.69636 20.8835C6.54345 20.7762 5.741 20.5683 5.16506 20.2145C4.09846 19.5593 3.5 18.1914 3.5 14.6402C3.5 11.9876 3.83454 10.5424 4.45009 9.71171Z" fill="white"/>
</svg>
