<svg width="72" height="52" viewBox="0 0 72 52" fill="none" xmlns="http://www.w3.org/2000/svg">
<path fill-rule="evenodd" clip-rule="evenodd" d="M41.8572 32.4171C43.7302 32.4171 45.2492 30.8991 45.2502 29.0261V29.0241V26.3241C44.0132 26.3241 43.0112 25.3221 43.0102 24.0851C43.0102 22.8491 44.0122 21.8461 45.2492 21.8461L45.2502 19.1461C45.2522 17.2721 43.7352 15.7521 41.8622 15.7501H41.8562H30.1442C28.2702 15.7501 26.7512 17.2681 26.7502 19.1421V21.9331C27.9442 21.8911 28.9452 22.8251 28.9872 24.0191C28.9882 24.0411 28.9892 24.0631 28.9892 24.0851C28.9902 25.3201 27.9912 26.3221 26.7562 26.3241H26.7502V29.0241C26.7492 30.8971 28.2682 32.4171 30.1412 32.4171H41.8572Z" stroke="#BABBBB" stroke-width="1.5" stroke-linecap="round" stroke-linejoin="round"/>
<path fill-rule="evenodd" clip-rule="evenodd" d="M36.3713 21.0631L36.9873 22.3101C37.0473 22.4321 37.1633 22.5171 37.2983 22.5371L38.6753 22.7381C39.0163 22.7881 39.1513 23.2061 38.9053 23.4451L37.9093 24.4151C37.8113 24.5101 37.7673 24.6471 37.7893 24.7821L38.0243 26.1521C38.0823 26.4911 37.7273 26.7491 37.4233 26.5891L36.1923 25.9421C36.0713 25.8781 35.9273 25.8781 35.8063 25.9421L34.5763 26.5891C34.2713 26.7491 33.9163 26.4911 33.9743 26.1521L34.2093 24.7821C34.2323 24.6471 34.1873 24.5101 34.0893 24.4151L33.0943 23.4451C32.8483 23.2061 32.9833 22.7881 33.3233 22.7381L34.7003 22.5371C34.8353 22.5171 34.9523 22.4321 35.0123 22.3101L35.6273 21.0631C35.7793 20.7551 36.2193 20.7551 36.3713 21.0631Z" stroke="#BABBBB" stroke-width="1.5" stroke-linecap="round" stroke-linejoin="round"/>
</svg>
