<svg width="34" height="34" viewBox="0 0 34 34" fill="none" xmlns="http://www.w3.org/2000/svg">
    <g id="Upload">
        <path id="Fill 1" opacity="0.4"
            d="M7.74492 33.666C3.65992 33.666 0.333252 30.2823 0.333252 26.1251L0.333252 17.8566C0.333252 13.7079 3.64992 10.3327 7.72825 10.3327H26.2549C30.3416 10.3327 33.6666 13.7164 33.6666 17.8753V26.1404C33.6666 30.2908 30.3499 33.666 26.2716 33.666H24.7049H7.74492Z"
            fill="#FF7300" />
        <path id="Fill 3"
            d="M16.0913 0.700989L11.243 5.44397C10.743 5.93418 10.743 6.72305 11.2463 7.21163C11.7497 7.69859 12.5613 7.69697 13.0613 7.20839L15.7163 4.60965V7.10126V21.0851C15.7163 21.775 16.2913 22.335 16.9997 22.335C17.7097 22.335 18.283 21.775 18.283 21.0851V4.60965L20.938 7.20839C21.438 7.69697 22.2497 7.69859 22.753 7.21163C23.0047 6.96653 23.1313 6.64676 23.1313 6.32537C23.1313 6.00722 23.0047 5.68745 22.7563 5.44397L17.9097 0.700989C17.668 0.465624 17.3413 0.332521 16.9997 0.332521C16.6597 0.332521 16.333 0.465624 16.0913 0.700989Z"
            fill="#FF7300" />
    </g>
</svg>
