<svg width="23" height="23" viewBox="0 0 23 23" fill="none" xmlns="http://www.w3.org/2000/svg">
<path d="M21.1864 9.16442C21.4615 8.81295 21.4293 8.32298 21.0941 8.02832C18.614 5.84851 15.3614 4.52667 11.8001 4.52667C8.23875 4.52667 4.98615 5.84851 2.50612 8.02832C2.17088 8.32298 2.13874 8.81291 2.41391 9.16432C2.53161 9.31464 2.62802 9.437 2.63994 9.45034L2.96538 9.78167C3.32241 10.1452 3.90526 10.1444 4.29266 9.81347C6.31292 8.08775 8.93482 7.04576 11.8001 7.04576C14.6654 7.04576 17.2873 8.08779 19.3076 9.81357C19.695 10.1445 20.2778 10.1453 20.6348 9.78188L20.9605 9.45034C20.9725 9.437 21.0688 9.3147 21.1864 9.16442Z" fill="#281F1B"/>
<path d="M17.4345 13.2997C17.7532 12.9428 17.7467 12.3965 17.3833 12.0853C15.882 10.7995 13.9317 10.0229 11.8001 10.0229C9.66844 10.0229 7.71819 10.7995 6.21687 12.0853C5.85349 12.3965 5.84702 12.9428 6.16567 13.2997L6.60513 13.7919C6.9685 14.1988 7.60259 14.194 8.02989 13.8548C9.06532 13.0329 10.3754 12.5419 11.8001 12.5419C13.2248 12.5419 14.5349 13.0329 15.5703 13.8548C15.9976 14.194 16.6317 14.1988 16.995 13.7919L17.4345 13.2997Z" fill="#281F1B"/>
<path d="M13.5955 17.599C13.8758 17.2852 13.9155 16.807 13.5973 16.5316C13.1155 16.1148 12.4872 15.8625 11.8001 15.8625C11.1129 15.8625 10.4847 16.1148 10.0029 16.5316C9.68465 16.807 9.72441 17.2852 10.0047 17.599L10.9855 18.6975C11.197 18.9344 11.4917 19.0687 11.8001 19.0687C12.1084 19.0687 12.4032 18.9344 12.6147 18.6975L13.5955 17.599Z" fill="#281F1B"/>
</svg>
