<svg width="34" height="30" viewBox="0 0 34 30" fill="none" xmlns="http://www.w3.org/2000/svg">
    <g id="Camera">
        <path id="Combined Shape" fill-rule="evenodd" clip-rule="evenodd"
            d="M24.85 11.7865C24.85 12.6189 25.5167 13.2848 26.35 13.2848C27.1833 13.2848 27.8667 12.6189 27.8667 11.7865C27.8667 10.9541 27.1833 10.2715 26.35 10.2715C25.5167 10.2715 24.85 10.9541 24.85 11.7865ZM21.6167 21.842C20.4333 23.024 18.8 23.7565 17 23.7565C15.25 23.7565 13.6167 23.0739 12.3667 21.842C11.1333 20.5933 10.45 18.9618 10.45 17.2138C10.4333 15.4824 11.1167 13.8508 12.35 12.6022C13.6 11.3536 15.25 10.671 17 10.671C18.75 10.671 20.4 11.3536 21.6333 12.5856C22.8667 13.8342 23.55 15.4824 23.55 17.2138C23.5333 19.0284 22.8 20.6599 21.6167 21.842ZM17 13.1683C15.9167 13.1683 14.9 13.5845 14.1167 14.3669C13.35 15.1327 12.9333 16.1483 12.95 17.1971V17.2138C12.95 18.2959 13.3667 19.3114 14.1333 20.0773C14.9 20.8431 15.9167 21.2593 17 21.2593C19.2333 21.2593 21.0333 19.4446 21.05 17.2138C21.05 16.1316 20.6333 15.1161 19.8667 14.3503C19.1 13.5845 18.0833 13.1683 17 13.1683Z"
            fill="#FF7300" />
        <path id="Path" opacity="0.4"
            d="M26.0667 5.39401L25.9 5.02775C25.45 4.0788 24.9334 2.98002 24.6167 2.34739C23.85 0.849057 22.5334 0.0166482 20.9167 0H13.0667C11.45 0.0166482 10.15 0.849057 9.38337 2.34739C9.05004 3.01332 8.48337 4.21199 8.01671 5.19423L7.91671 5.39401C7.86671 5.52719 7.73337 5.59378 7.60004 5.59378C3.58337 5.59378 0.333374 8.85683 0.333374 12.8524V22.7414C0.333374 26.737 3.58337 30 7.60004 30H26.4C30.4 30 33.6667 26.737 33.6667 22.7414V12.8524C33.6667 8.85683 30.4 5.59378 26.4 5.59378C26.25 5.59378 26.1334 5.51054 26.0667 5.39401Z"
            fill="#FF7300" />
    </g>
</svg>
