<svg width="25" height="24" viewBox="0 0 25 24" fill="none" xmlns="http://www.w3.org/2000/svg">
<path fill-rule="evenodd" clip-rule="evenodd" d="M16.803 2.74976H8.151C5.139 2.74976 3.25 4.88376 3.25 7.90376V16.0498C3.25 19.0698 5.131 21.2038 8.151 21.2038H16.798C19.823 21.2038 21.703 19.0698 21.703 16.0498V7.90376C21.707 4.88376 19.826 2.74976 16.803 2.74976Z" stroke="#313131" stroke-width="1.5" stroke-linecap="round" stroke-linejoin="round"/>
<path fill-rule="evenodd" clip-rule="evenodd" d="M11.2037 8.78496C11.2037 9.80496 10.3777 10.631 9.35772 10.631C8.33872 10.631 7.51172 9.80496 7.51172 8.78496C7.51172 7.76496 8.33872 6.93896 9.35772 6.93896C10.3767 6.93996 11.2027 7.76596 11.2037 8.78496Z" stroke="#313131" stroke-width="1.5" stroke-linecap="round" stroke-linejoin="round"/>
<path d="M21.707 14.9509C20.784 14.0009 19.009 12.0819 17.079 12.0819C15.148 12.0819 14.035 16.3149 12.178 16.3149C10.321 16.3149 8.634 14.4009 7.146 15.6279C5.658 16.8539 4.25 19.3609 4.25 19.3609" stroke="#313131" stroke-width="1.5" stroke-linecap="round" stroke-linejoin="round"/>
</svg>
