<svg width="17" height="16" viewBox="0 0 17 16" fill="none" xmlns="http://www.w3.org/2000/svg">
<path d="M13.2267 9.6274V12.5874C13.2265 13.0062 13.0601 13.4078 12.7639 13.704C12.4678 14.0001 12.0662 14.1666 11.6473 14.1667H3.91335C3.70518 14.1666 3.49909 14.1254 3.3069 14.0454C3.11472 13.9655 2.94023 13.8483 2.79347 13.7007C2.64671 13.553 2.53057 13.3779 2.45172 13.1852C2.37287 12.9926 2.33287 12.7862 2.33401 12.5781V4.85273C2.33277 4.6449 2.3728 4.43888 2.45176 4.24663C2.53072 4.05438 2.64706 3.87971 2.79402 3.73274C2.94099 3.58578 3.11566 3.46944 3.30791 3.39048C3.50016 3.31152 3.70618 3.27149 3.91401 3.27273H6.87335" stroke="#BABBBB" stroke-linecap="round" stroke-linejoin="round"/>
<path d="M13.2266 5.99669L10.5033 3.27269M5.05664 10.5354V9.09202C5.05797 8.85402 5.15264 8.62535 5.31997 8.45669L11.6746 2.10202C11.759 2.01676 11.8594 1.94907 11.97 1.90287C12.0807 1.85667 12.1994 1.83289 12.3193 1.83289C12.4392 1.83289 12.5579 1.85667 12.6686 1.90287C12.7793 1.94907 12.8797 2.01676 12.964 2.10202L14.398 3.53602C14.4832 3.62034 14.5509 3.72073 14.5971 3.83139C14.6433 3.94205 14.6671 4.06077 14.6671 4.18069C14.6671 4.3006 14.6433 4.41932 14.5971 4.52998C14.5509 4.64064 14.4832 4.74103 14.398 4.82535L8.04331 11.18C7.87433 11.3478 7.64612 11.4424 7.40798 11.4434H5.96464C5.84535 11.4435 5.7272 11.4202 5.61696 11.3746C5.50671 11.329 5.40655 11.2621 5.3222 11.1778C5.23785 11.0934 5.17097 10.9933 5.1254 10.883C5.07983 10.7728 5.05647 10.6546 5.05664 10.5354Z" stroke="#BABBBB" stroke-linecap="round" stroke-linejoin="round"/>
</svg>
