<svg width="18" height="18" viewBox="0 0 18 18" fill="none" xmlns="http://www.w3.org/2000/svg">
<g clip-path="url(#clip0_8018_21785)">
<path d="M12.0028 11.4829L16.4 15.8801M8.09426 12.9486C8.80002 12.9486 9.49887 12.8096 10.1509 12.5396C10.8029 12.2695 11.3954 11.8736 11.8944 11.3746C12.3935 10.8755 12.7894 10.283 13.0594 9.63101C13.3295 8.97897 13.4685 8.28012 13.4685 7.57436C13.4685 6.8686 13.3295 6.16975 13.0594 5.51771C12.7894 4.86567 12.3935 4.27321 11.8944 3.77416C11.3954 3.27512 10.8029 2.87925 10.1509 2.60917C9.49887 2.33908 8.80002 2.20007 8.09426 2.20007C6.66891 2.20007 5.30194 2.76629 4.29406 3.77417C3.28619 4.78204 2.71997 6.14901 2.71997 7.57436C2.71997 8.99971 3.28619 10.3667 4.29406 11.3746C5.30194 12.3824 6.66891 12.9486 8.09426 12.9486Z" stroke="#171717" stroke-width="1.92"/>
</g>
<defs>
<clipPath id="clip0_8018_21785">
<rect width="17.28" height="17.28" fill="white" transform="translate(0.560059 0.0400391)"/>
</clipPath>
</defs>
</svg>
