<svg width="27" height="27" viewBox="0 0 27 27" fill="none" xmlns="http://www.w3.org/2000/svg">
<path d="M18.8946 9.25749L17.6849 7.1222C17.5589 6.89862 17.28 6.79829 17.0615 6.90168L4.6901 12.8483C4.47537 12.9507 4.40163 13.2173 4.5291 13.4447L5.73884 15.58L18.8946 9.25749Z" fill="#FCEBEA"/>
<path d="M17.7017 7.14418C17.0938 6.07343 15.7651 5.60345 14.7382 6.09851L5.30002 10.6387C4.27318 11.1337 3.93054 12.4063 4.53839 13.4771C4.68361 13.7296 4.99619 13.842 5.23823 13.7234L17.5187 7.8156C17.7645 7.69594 17.8469 7.39676 17.7017 7.14418Z" fill="#C41835"/>
<path d="M17.7415 8.70259L5.96263 14.3305C5.6021 14.5018 5.48169 14.9462 5.69372 15.3195L7.88489 19.1624C8.489 20.2197 9.80992 20.684 10.8309 20.1953L20.2148 15.7139C21.2358 15.2253 21.5766 13.9688 20.9725 12.9115L18.7813 9.06861C18.5693 8.69536 18.1021 8.5313 17.7415 8.70259Z" fill="#EA1D2C"/>
<path d="M11.8 16.7794L9.92344 17.6762C9.65363 17.806 9.29965 17.681 9.13961 17.4009C8.97957 17.1208 9.07124 16.7834 9.34106 16.6536L11.2177 15.7568C11.4875 15.627 11.8414 15.752 12.0015 16.0321C12.1578 16.3132 12.0736 16.6485 11.8 16.7794Z" fill="#FCEBEA"/>
<ellipse cx="13.5488" cy="13.2575" rx="13" ry="12.861" fill="white"/>
<path fill-rule="evenodd" clip-rule="evenodd" d="M16.1361 6.66048C15.7932 7.53298 14.7649 8.16646 13.5496 8.16646C12.3342 8.16646 11.3058 7.53282 10.9629 6.66016C9.18639 7.06786 7.86133 8.65862 7.86133 10.5589V15.9558C7.86133 17.856 9.18632 19.4467 10.9628 19.8544C11.3055 18.9816 12.334 18.3479 13.5496 18.3479C14.7649 18.3479 15.7933 18.9815 16.1362 19.8541C17.912 19.4459 19.2363 17.8555 19.2363 15.9558V10.5589C19.2363 8.65913 17.912 7.0687 16.1361 6.66048Z" fill="#EA1D2C"/>
<mask id="mask0_3189_133582" style="mask-type:alpha" maskUnits="userSpaceOnUse" x="7" y="6" width="17" height="19">
<path fill-rule="evenodd" clip-rule="evenodd" d="M19.0122 6.55859C18.6087 7.81236 17.1859 8.73874 15.4927 8.73874C13.7996 8.73874 12.3768 7.81236 11.9733 6.55859H11.8613C9.65219 6.55859 7.86133 8.34945 7.86133 10.5586V20.7287C7.86133 22.9378 9.65219 24.7287 11.8613 24.7287H11.9731C12.3765 23.4748 13.7993 22.5483 15.4926 22.5483C17.1859 22.5483 18.6087 23.4748 19.0121 24.7287H19.1242C21.3333 24.7287 23.1242 22.9378 23.1242 20.7287V10.5586C23.1242 8.34945 21.3333 6.55859 19.1242 6.55859H19.0122Z" fill="#C41835"/>
</mask>
<g mask="url(#mask0_3189_133582)">
<rect x="7.86133" y="10.8457" width="11.375" height="9.10988" fill="#FF4E4E"/>
</g>
<path d="M11.8578 12.1855C12.1055 12.1855 12.3272 12.2399 12.5227 12.3486C12.7183 12.4573 12.8704 12.6068 12.9791 12.797C13.0899 12.9873 13.1453 13.1995 13.1453 13.4336C13.1453 13.6656 13.0899 13.8768 12.9791 14.067C12.8704 14.2573 12.7172 14.4067 12.5195 14.5155C12.3239 14.6242 12.1034 14.6785 11.8578 14.6785C11.6101 14.6785 11.3884 14.6242 11.1929 14.5155C10.9973 14.4067 10.8441 14.2583 10.7333 14.0702C10.6246 13.8799 10.5703 13.6677 10.5703 13.4336C10.5703 13.1995 10.6246 12.9873 10.7333 12.797C10.8441 12.6068 10.9973 12.4573 11.1929 12.3486C11.3884 12.2399 11.6101 12.1855 11.8578 12.1855ZM14.8468 12.2577H15.8148L12.2522 16.9457H11.2841L14.8468 12.2577ZM11.8578 13.9071C11.9969 13.9071 12.1099 13.8622 12.1968 13.7723C12.2859 13.6824 12.3304 13.5695 12.3304 13.4336C12.3304 13.2977 12.2859 13.1848 12.1968 13.0949C12.1099 13.0029 11.9969 12.957 11.8578 12.957C11.7187 12.957 11.6047 13.0029 11.5156 13.0949C11.4265 13.1848 11.3819 13.2977 11.3819 13.4336C11.3819 13.5695 11.4265 13.6824 11.5156 13.7723C11.6047 13.8622 11.7187 13.9071 11.8578 13.9071ZM15.2411 14.5186C15.4889 14.5186 15.7105 14.5729 15.9061 14.6817C16.1017 14.7904 16.2538 14.9398 16.3624 15.1301C16.4732 15.3182 16.5286 15.5294 16.5286 15.7635C16.5286 15.9976 16.4732 16.2098 16.3624 16.4001C16.2538 16.5882 16.1017 16.7367 15.9061 16.8454C15.7105 16.9541 15.4889 17.0084 15.2411 17.0084C14.9956 17.0084 14.774 16.9541 14.5762 16.8454C14.3806 16.7367 14.2275 16.5872 14.1166 16.3969C14.008 16.2067 13.9537 15.9956 13.9537 15.7635C13.9537 15.5315 14.008 15.3203 14.1166 15.1301C14.2275 14.9398 14.3806 14.7904 14.5762 14.6817C14.774 14.5729 14.9956 14.5186 15.2411 14.5186ZM15.2411 16.2402C15.3802 16.2402 15.4943 16.1952 15.5834 16.1053C15.6725 16.0133 15.717 15.8994 15.717 15.7635C15.717 15.6276 15.6725 15.5147 15.5834 15.4248C15.4943 15.3349 15.3802 15.29 15.2411 15.29C15.1021 15.29 14.988 15.3349 14.8989 15.4248C14.812 15.5147 14.7685 15.6276 14.7685 15.7635C14.7685 15.8994 14.812 16.0133 14.8989 16.1053C14.988 16.1952 15.1021 16.2402 15.2411 16.2402Z" fill="#FCEBEA"/>
</svg>
