<svg width="22" height="22" viewBox="0 0 22 22" fill="none" xmlns="http://www.w3.org/2000/svg">
<mask id="mask0_8018_21859" style="mask-type:luminance" maskUnits="userSpaceOnUse" x="0" y="0" width="22" height="22">
<path d="M1 1H21" stroke="white" stroke-width="2" stroke-linecap="round" stroke-linejoin="round"/>
<path d="M18 1H4C3.44772 1 3 1.44772 3 2V20C3 20.5523 3.44772 21 4 21H18C18.5523 21 19 20.5523 19 20V2C19 1.44772 18.5523 1 18 1Z" fill="white" stroke="white" stroke-width="2" stroke-linejoin="round"/>
<path d="M9 15H13V21H9V15Z" stroke="black" stroke-width="2" stroke-linecap="round" stroke-linejoin="round"/>
<path d="M6.5 5H7.5M6.5 8H7.5M10.5 5H11.5M10.5 8H11.5M14.5 5H15.5M14.5 8H15.5" stroke="black" stroke-width="2" stroke-linecap="round"/>
<path d="M1 21H21" stroke="white" stroke-width="2" stroke-linecap="round" stroke-linejoin="round"/>
<path d="M13 15H14C14.276 15 14.505 14.774 14.452 14.503C14.176 13.083 12.7355 12 11 12C9.26446 12 7.82396 13.0825 7.54796 14.503C7.49496 14.774 7.72396 15 7.99996 15H8.99996" stroke="black" stroke-width="2" stroke-linecap="round" stroke-linejoin="round"/>
</mask>
<g mask="url(#mask0_8018_21859)">
<path d="M-1 -1H23V23H-1V-1Z" fill="white"/>
</g>
</svg>
