<svg width="28" height="29" viewBox="0 0 28 29" fill="none" xmlns="http://www.w3.org/2000/svg">
<path d="M0.3125 14.412C0.3125 14.9745 0.7575 15.3145 1.3085 15.3145C1.6485 15.3145 1.918 15.1505 2.1525 14.916L13.59 4.49798C13.7185 4.36898 13.8595 4.32198 14.0115 4.32198C14.1525 4.32198 14.2815 4.36898 14.4215 4.49798L25.8475 14.916C26.0935 15.1505 26.363 15.3145 26.6915 15.3145C27.242 15.3145 27.6875 14.9745 27.6875 14.412C27.6875 14.0605 27.5585 13.838 27.336 13.6385L23.281 9.94748V3.02148C23.281 2.50598 22.953 2.17798 22.4375 2.17798H20.9025C20.3985 2.17798 20.047 2.50598 20.047 3.02148V7.00598L15.406 2.76348C14.996 2.37698 14.492 2.18998 14 2.18998C13.5075 2.18998 13.0155 2.37748 12.5935 2.76398L0.664 13.6385C0.453 13.838 0.3125 14.0605 0.3125 14.412ZM3.664 24.244C3.664 25.873 4.6485 26.8225 6.3005 26.8225H11.047V18.49C11.047 17.951 11.41 17.6 11.949 17.6H16.086C16.625 17.6 16.9765 17.951 16.9765 18.49V26.8225H21.711C23.363 26.8225 24.336 25.873 24.336 24.244V15.666L14.3865 6.70098C14.2575 6.58398 14.117 6.52548 13.9765 6.52548C13.8475 6.52548 13.7185 6.58398 13.578 6.71298L3.664 15.7245V24.244Z" fill="#454545"/>
</svg>
