<svg width="40" height="40" viewBox="0 0 40 40" fill="none" xmlns="http://www.w3.org/2000/svg">
<g id="Send">
<rect width="40" height="40" rx="20" fill="#737373"/>
<path id="Vector" d="M30.472 20.1544C30.4813 19.4377 30.0931 18.779 29.4626 18.4332L14.7707 10.3611C14.1127 9.98918 13.337 10.0349 12.7169 10.4583C12.0854 10.8888 11.7622 11.9138 11.9387 12.6541L13.3103 18.4003C13.4511 18.9896 13.9785 19.4045 14.5852 19.4019L22.7611 19.3765C23.1798 19.3681 23.5194 19.7077 23.511 20.1263C23.5097 20.5379 23.1752 20.8724 22.7565 20.8808L14.5727 20.8998C13.966 20.901 13.4361 21.3178 13.2916 21.9079L11.8716 27.677C11.6991 28.3588 11.8957 29.0394 12.3767 29.5204C12.4333 29.577 12.497 29.6406 12.5607 29.6901C13.1837 30.1707 13.9995 30.232 14.696 29.8609L29.4378 21.8677C30.0703 21.5323 30.4627 20.8711 30.472 20.1544Z" fill="white"/>
</g>
</svg>
