<svg width="17" height="13" viewBox="0 0 17 13" fill="none" xmlns="http://www.w3.org/2000/svg">
<path d="M0.27002 1.68005C0.27002 1.48114 0.349037 1.29038 0.489689 1.14972C0.630342 1.00907 0.821107 0.930054 1.02002 0.930054H16.02C16.2189 0.930054 16.4097 1.00907 16.5504 1.14972C16.691 1.29038 16.77 1.48114 16.77 1.68005C16.77 1.87897 16.691 2.06973 16.5504 2.21038C16.4097 2.35104 16.2189 2.43005 16.02 2.43005H1.02002C0.821107 2.43005 0.630342 2.35104 0.489689 2.21038C0.349037 2.06973 0.27002 1.87897 0.27002 1.68005ZM2.77002 6.68005C2.77002 6.48114 2.84904 6.29038 2.98969 6.14972C3.13034 6.00907 3.32111 5.93005 3.52002 5.93005H13.52C13.7189 5.93005 13.9097 6.00907 14.0504 6.14972C14.191 6.29038 14.27 6.48114 14.27 6.68005C14.27 6.87897 14.191 7.06973 14.0504 7.21038C13.9097 7.35104 13.7189 7.43005 13.52 7.43005H3.52002C3.32111 7.43005 3.13034 7.35104 2.98969 7.21038C2.84904 7.06973 2.77002 6.87897 2.77002 6.68005ZM5.77002 11.6801C5.77002 11.4811 5.84904 11.2904 5.98969 11.1497C6.13034 11.0091 6.32111 10.9301 6.52002 10.9301H10.52C10.7189 10.9301 10.9097 11.0091 11.0503 11.1497C11.191 11.2904 11.27 11.4811 11.27 11.6801C11.27 11.879 11.191 12.0697 11.0503 12.2104C10.9097 12.351 10.7189 12.4301 10.52 12.4301H6.52002C6.32111 12.4301 6.13034 12.351 5.98969 12.2104C5.84904 12.0697 5.77002 11.879 5.77002 11.6801Z" fill="black"/>
</svg>
