<svg width="18" height="20" viewBox="0 0 18 20" fill="none" xmlns="http://www.w3.org/2000/svg">
<path fill-rule="evenodd" clip-rule="evenodd" d="M9.37156 0H9.30024C5.9311 0 2.84199 2.44456 2.5423 5.68096C2.52231 5.91248 2.50869 6.14906 2.49989 6.40391L2.48757 6.99974L2.48514 7.53395L2.50018 7.47306C2.36114 8.15105 2.0407 8.77993 1.57198 9.29378L1.50481 9.3802C1.10349 9.98985 0.872892 10.6955 0.837199 11.4242L0.836353 11.6624C0.815864 12.6208 1.14427 13.5691 1.76208 14.3223C2.59989 15.2069 3.68441 15.7346 4.84841 15.8466C7.82545 16.1699 10.8374 16.1699 13.8228 15.8457C14.9788 15.7393 16.0666 15.2101 16.8693 14.3582C17.4754 13.6331 17.8061 12.763 17.8345 11.862L17.8354 11.4587C17.8023 10.698 17.5703 9.99168 17.1641 9.38467L17.1024 9.30546L16.9517 9.12821C16.613 8.70525 16.3657 8.21802 16.225 7.69688L16.1805 7.50977L16.1712 7.31353C16.1685 7.22527 16.1671 7.1274 16.1667 7.00516L16.1665 6.33206C16.1642 6.07458 16.1566 5.89148 16.1388 5.68536C15.8289 2.44285 12.7389 0 9.37156 0ZM9.29664 1.39539H9.36797C12.0655 1.39539 14.5262 3.34079 14.7626 5.8133C14.7766 5.97562 14.7828 6.13048 14.7847 6.36053L14.7874 7.26517C14.7904 7.40985 14.7961 7.53016 14.8058 7.66555L14.8187 7.75822L14.8836 8.034C15.0758 8.76354 15.4212 9.44413 15.8966 10.0309L16.0344 10.1926L16.0192 10.1672C16.2829 10.5613 16.4331 11.0186 16.4541 11.4902L16.4534 11.6536C16.4693 12.3097 16.2518 12.9331 15.8402 13.4267C15.2964 14.002 14.5189 14.3803 13.6832 14.4573C10.7846 14.7719 7.87114 14.7719 4.98354 14.4584C4.13868 14.377 3.36067 13.9985 2.78555 13.3931C2.41272 12.9357 2.19754 12.3143 2.21105 11.6775L2.21121 11.4588L2.22868 11.2683C2.27075 10.9495 2.37724 10.6265 2.5423 10.3291L2.62601 10.1906C3.23965 9.50041 3.66078 8.66117 3.84626 7.75671L3.86065 7.6149L3.86717 6.69563L3.88323 6.22923C3.89051 6.08211 3.89984 5.94232 3.91153 5.80681C4.13989 3.3409 6.59837 1.39539 9.29664 1.39539ZM2.62601 10.1906C2.61117 10.2073 2.59622 10.2239 2.58115 10.2404L2.63042 10.1833L2.62601 10.1906ZM11.9415 17.6906C11.6449 17.4491 11.2111 17.4967 10.9725 17.7969C10.8691 17.927 10.7493 18.0437 10.6161 18.1442C10.1643 18.4986 9.60047 18.6564 9.03995 18.5896C8.48025 18.523 7.97147 18.2381 7.62626 17.7995C7.38907 17.4981 6.95544 17.4484 6.65773 17.6885C6.36001 17.9286 6.31095 18.3676 6.54814 18.6689C7.12056 19.3962 7.95933 19.8659 8.87885 19.9754C9.79756 20.0849 10.7227 19.826 11.4503 19.255C11.6663 19.0922 11.8701 18.8935 12.0465 18.6715C12.2851 18.3713 12.2381 17.9321 11.9415 17.6906Z" fill="#171717"/>
</svg>
