<svg width="18" height="18" viewBox="0 0 18 18" fill="none" xmlns="http://www.w3.org/2000/svg">
<g id="pix 1" clip-path="url(#clip0_71_7206)">
<path id="Vector" d="M8.5221 10.2832C8.71194 10.0933 9.0389 10.0933 9.22874 10.2832L11.9358 12.9902C12.435 13.4894 13.0994 13.7637 13.8026 13.7637H14.3334L10.9198 17.1773C9.85452 18.2144 8.12484 18.2144 7.0596 17.1773L3.63187 13.7531H3.95882C4.66195 13.7531 5.3264 13.4789 5.82562 12.9797L8.5221 10.2832ZM9.22874 7.69569C9.00374 7.88905 8.71546 7.89256 8.5221 7.69569L5.82562 4.9992C5.3264 4.46834 4.66195 4.22576 3.95882 4.22576H3.63187L7.05609 0.800139C8.12484 -0.266713 9.85452 -0.266713 10.9198 0.800139L14.3369 4.21522H13.8026C13.0994 4.21522 12.435 4.48944 11.9358 4.98865L9.22874 7.69569ZM3.95882 5.01678C4.44398 5.01678 4.89046 5.21365 5.26312 5.55819L7.9596 8.25467C8.21273 8.47616 8.54319 8.63436 8.87718 8.63436C9.20765 8.63436 9.53812 8.47616 9.79124 8.25467L12.4983 5.54764C12.8428 5.20662 13.3174 5.00975 13.8026 5.00975H15.128L17.1776 7.05936C18.2428 8.12459 18.2428 9.85428 17.1776 10.9195L15.128 12.9691H13.8026C13.3174 12.9691 12.8428 12.7723 12.4983 12.4277L9.79124 9.72069C9.30257 9.23201 8.44827 9.23202 7.9596 9.7242L5.26312 12.4172C4.89046 12.7617 4.44398 12.9586 3.95882 12.9586H2.84015L0.800383 10.9195C-0.266469 9.85428 -0.266469 8.12459 0.800383 7.05936L2.84015 5.01678H3.95882Z" fill="#00B7A9"/>
</g>
<defs>
<clipPath id="clip0_71_7206">
<rect width="18" height="18" fill="white"/>
</clipPath>
</defs>
</svg>
